<svg width="208" height="55" viewBox="0 0 208 55" fill="none" xmlns="http://www.w3.org/2000/svg">
<path d="M66.0503 43C64.1303 43 62.5463 42.232 61.2983 40.696C60.0503 39.128 59.4263 37.128 59.4263 34.696V7.336C59.4263 6.792 59.5863 6.36 59.9063 6.04C60.2583 5.688 60.7063 5.512 61.2503 5.512C61.7943 5.512 62.2263 5.688 62.5463 6.04C62.8983 6.36 63.0743 6.792 63.0743 7.336V34.696C63.0743 36.072 63.3463 37.192 63.8903 38.056C64.4663 38.92 65.1863 39.352 66.0503 39.352H67.2503C67.7303 39.352 68.1143 39.528 68.4023 39.88C68.6903 40.2 68.8343 40.632 68.8343 41.176C68.8343 41.72 68.6263 42.168 68.2103 42.52C67.8263 42.84 67.3143 43 66.6743 43H66.0503ZM66.2531 54.232C65.7091 54.232 65.2611 54.056 64.9091 53.704C64.5571 53.384 64.3811 52.936 64.3811 52.36C64.3811 51.816 64.5571 51.368 64.9091 51.016C65.2611 50.664 65.7091 50.488 66.2531 50.488C68.4611 50.488 70.2691 49.784 71.6771 48.376C73.0851 46.968 73.7891 45.176 73.7891 43V18.616C73.7891 18.04 73.9491 17.592 74.2691 17.272C74.6211 16.92 75.0691 16.744 75.6131 16.744C76.1571 16.744 76.6051 16.92 76.9571 17.272C77.3091 17.592 77.4851 18.04 77.4851 18.616V43C77.4851 45.176 77.0051 47.112 76.0451 48.808C75.0851 50.504 73.7571 51.832 72.0611 52.792C70.3651 53.752 68.4291 54.232 66.2531 54.232ZM75.5651 11.752C74.8611 11.752 74.2531 11.496 73.7411 10.984C73.2291 10.472 72.9731 9.848 72.9731 9.112C72.9731 8.312 73.2291 7.688 73.7411 7.24C74.2851 6.76 74.9091 6.52 75.6131 6.52C76.2851 6.52 76.8771 6.76 77.3891 7.24C77.9331 7.688 78.2051 8.312 78.2051 9.112C78.2051 9.848 77.9491 10.472 77.4371 10.984C76.9251 11.496 76.3011 11.752 75.5651 11.752ZM88.5326 43C87.9886 43 87.5406 42.824 87.1886 42.472C86.8366 42.12 86.6606 41.672 86.6606 41.128V7.384C86.6606 6.84 86.8366 6.392 87.1886 6.04C87.5406 5.688 87.9886 5.512 88.5326 5.512H98.1326C100.501 5.512 102.597 6.04 104.421 7.096C106.245 8.12 107.669 9.544 108.693 11.368C109.717 13.192 110.229 15.304 110.229 17.704C110.229 20.04 109.717 22.12 108.693 23.944C107.669 25.736 106.245 27.16 104.421 28.216C102.597 29.24 100.501 29.752 98.1326 29.752H90.4046V41.128C90.4046 41.672 90.2286 42.12 89.8766 42.472C89.5246 42.824 89.0766 43 88.5326 43ZM90.4046 26.152H98.1326C99.7646 26.152 101.221 25.8 102.501 25.096C103.781 24.36 104.773 23.352 105.477 22.072C106.213 20.792 106.581 19.336 106.581 17.704C106.581 16.008 106.213 14.52 105.477 13.24C104.773 11.96 103.781 10.952 102.501 10.216C101.221 9.48 99.7646 9.112 98.1326 9.112H90.4046V26.152ZM117.491 43C116.915 43 116.451 42.84 116.099 42.52C115.779 42.168 115.619 41.704 115.619 41.128V18.616C115.619 18.04 115.779 17.592 116.099 17.272C116.451 16.92 116.915 16.744 117.491 16.744C118.035 16.744 118.467 16.92 118.787 17.272C119.139 17.592 119.315 18.04 119.315 18.616V41.128C119.315 41.704 119.139 42.168 118.787 42.52C118.467 42.84 118.035 43 117.491 43ZM117.443 11.752C116.739 11.752 116.131 11.496 115.619 10.984C115.107 10.472 114.851 9.848 114.851 9.112C114.851 8.312 115.107 7.688 115.619 7.24C116.163 6.76 116.787 6.52 117.491 6.52C118.163 6.52 118.755 6.76 119.267 7.24C119.811 7.688 120.083 8.312 120.083 9.112C120.083 9.848 119.827 10.472 119.315 10.984C118.803 11.496 118.179 11.752 117.443 11.752ZM131.27 43C130.79 43 130.374 42.84 130.022 42.52C129.67 42.168 129.494 41.704 129.494 41.128V20.92H126.422C125.91 20.92 125.494 20.776 125.174 20.488C124.886 20.168 124.742 19.784 124.742 19.336C124.742 18.856 124.886 18.472 125.174 18.184C125.494 17.864 125.91 17.704 126.422 17.704H129.494V16.792C129.494 13.432 130.358 10.712 132.086 8.632C133.814 6.552 136.31 5.512 139.574 5.512C140.118 5.512 140.566 5.672 140.918 5.992C141.27 6.312 141.446 6.712 141.446 7.192C141.446 7.672 141.27 8.072 140.918 8.392C140.566 8.712 140.118 8.872 139.574 8.872C137.398 8.872 135.782 9.608 134.726 11.08C133.702 12.52 133.19 14.36 133.19 16.6V17.704H138.95C139.462 17.704 139.862 17.864 140.15 18.184C140.47 18.472 140.63 18.856 140.63 19.336C140.63 19.784 140.47 20.168 140.15 20.488C139.862 20.776 139.462 20.92 138.95 20.92H133.19V41.128C133.19 41.704 133.014 42.168 132.662 42.52C132.342 42.84 131.878 43 131.27 43ZM148.838 43C148.358 43 147.942 42.84 147.59 42.52C147.238 42.168 147.062 41.704 147.062 41.128V20.92H143.99C143.478 20.92 143.062 20.776 142.742 20.488C142.454 20.168 142.31 19.784 142.31 19.336C142.31 18.856 142.454 18.472 142.742 18.184C143.062 17.864 143.478 17.704 143.99 17.704H147.062V16.792C147.062 13.432 147.926 10.712 149.654 8.632C151.382 6.552 153.878 5.512 157.142 5.512C157.686 5.512 158.134 5.672 158.486 5.992C158.838 6.312 159.014 6.712 159.014 7.192C159.014 7.672 158.838 8.072 158.486 8.392C158.134 8.712 157.686 8.872 157.142 8.872C154.966 8.872 153.35 9.608 152.294 11.08C151.27 12.52 150.758 14.36 150.758 16.6V17.704H156.518C157.03 17.704 157.43 17.864 157.718 18.184C158.038 18.472 158.198 18.856 158.198 19.336C158.198 19.784 158.038 20.168 157.718 20.488C157.43 20.776 157.03 20.92 156.518 20.92H150.758V41.128C150.758 41.704 150.582 42.168 150.23 42.52C149.91 42.84 149.446 43 148.838 43ZM173.409 43.24C170.817 43.24 168.513 42.68 166.497 41.56C164.513 40.408 162.945 38.824 161.793 36.808C160.673 34.792 160.113 32.488 160.113 29.896C160.113 27.272 160.641 24.968 161.697 22.984C162.785 20.968 164.273 19.384 166.161 18.232C168.049 17.08 170.225 16.504 172.689 16.504C175.121 16.504 177.233 17.064 179.025 18.184C180.849 19.272 182.257 20.792 183.249 22.744C184.241 24.696 184.737 26.92 184.737 29.416C184.737 29.928 184.577 30.344 184.257 30.664C183.937 30.952 183.521 31.096 183.009 31.096H163.617C163.809 32.824 164.337 34.36 165.201 35.704C166.065 37.016 167.201 38.056 168.609 38.824C170.017 39.56 171.617 39.928 173.409 39.928C174.561 39.928 175.713 39.736 176.865 39.352C178.049 38.936 178.993 38.424 179.697 37.816C180.049 37.528 180.449 37.384 180.897 37.384C181.345 37.352 181.729 37.464 182.049 37.72C182.465 38.104 182.673 38.52 182.673 38.968C182.705 39.416 182.529 39.8 182.145 40.12C181.089 41.016 179.745 41.768 178.113 42.376C176.481 42.952 174.913 43.24 173.409 43.24ZM172.689 19.816C170.225 19.816 168.193 20.584 166.593 22.12C164.993 23.624 164.033 25.592 163.713 28.024H181.281C181.025 25.592 180.129 23.624 178.593 22.12C177.089 20.584 175.121 19.816 172.689 19.816ZM192.093 43C190.877 43 190.269 42.392 190.269 41.176V18.568C190.269 17.352 190.877 16.744 192.093 16.744C193.309 16.744 193.917 17.352 193.917 18.568V20.632C194.877 19.352 196.061 18.344 197.469 17.608C198.877 16.84 200.429 16.456 202.125 16.456C203.597 16.456 204.733 16.664 205.533 17.08C206.333 17.496 206.637 18.104 206.445 18.904C206.285 19.64 205.901 20.024 205.293 20.056C204.717 20.056 204.029 20.024 203.229 19.96C201.437 19.8 199.837 19.992 198.429 20.536C197.053 21.048 195.949 21.848 195.117 22.936C194.317 24.024 193.917 25.32 193.917 26.824V41.176C193.917 42.392 193.309 43 192.093 43Z" fill="#E5E5E5"/>
<path fill-rule="evenodd" clip-rule="evenodd" d="M11.2593 16.2593V43L0 31.7407V5H1.14441e-05H26.7408L38 16.2593H11.2593H11.2593Z" fill="url(#paint0_linear_0_119)"/>
<path fill-rule="evenodd" clip-rule="evenodd" d="M26.7407 31.7407L26.7407 5L38 16.2593V43H38H11.2592L-1.14441e-05 31.7407L26.7407 31.7407H26.7407Z" fill="#E5E5E5"/>
<defs>
<linearGradient id="paint0_linear_0_119" x1="26.7407" y1="5" x2="11.2593" y2="43" gradientUnits="userSpaceOnUse">
<stop stop-color="#0ACF83"/>
<stop offset="1" stop-color="#FF4D00"/>
</linearGradient>
</defs>
</svg>
